# xmcd
#
# Track frame offsets: 
#        150
#        19389
#        38074
#        65413
#        77280
#        104699
#        126176
#        143167
#        157363
#        184570
#        212317
#        228011
#        249824
#        272486
#        296873
#        317378
#        341341
#
# Disc length: 4786 seconds
#
# Revision: 1
# Processed by: cddbd v1.5.2PL0 Copyright (c) Steve Scherf et al.
# Submitted via: ExactAudioCopy v1.3
#
DISCID=e412b011
DTITLE=Various Artist - Akella Presents - vol.80 - Rockin'  Blues  (N
DTITLE=ew!)  CD2
DYEAR=2017
DGENRE=Blues
TTITLE0=Grant Lyle - Lost in Temptation
TTITLE1=Bill Wharton and The Ingredients - Mighty Blue Sufi
TTITLE2=Royal Southern Brotherhood - Blood Is Thicker Than Water
TTITLE3=Thorbjorn Risager - Baby Please Dont Go
TTITLE4=Daniel Castro - Got My Mojo Working
TTITLE5=Sean Costello - Peace Of Mind
TTITLE6=Muskee - Tough On Me
TTITLE7=Moreland and Arbuckle - Long Way Home
TTITLE8=Nick Moss Band - Stand By
TTITLE9=145th Street - Give Her What She Wants
TTITLE10=The Righteous Blues Band - Living Proof
TTITLE11=The Jake Levinson Band - Home Sweet Home
TTITLE12=The Steepwater Band - Come On Down
TTITLE13=SwampDaWamp - Tastes Like Chicken To Me
TTITLE14=Los Lobos - Hurry Tomorrow
TTITLE15=Crooked Eye Tommy - Come On In
TTITLE16=Tony Vega Band - High Expectations
EXTD=
EXTT0=
EXTT1=
EXTT2=
EXTT3=
EXTT4=
EXTT5=
EXTT6=
EXTT7=
EXTT8=
EXTT9=
EXTT10=
EXTT11=
EXTT12=
EXTT13=
EXTT14=
EXTT15=
EXTT16=
PLAYORDER=
